<?xml version="1.0" standalone="no"?><!DOCTYPE svg PUBLIC "-//W3C//DTD SVG 1.1//EN" "http://www.w3.org/Graphics/SVG/1.1/DTD/svg11.dtd"><svg t="1531721370384" class="icon" style="" viewBox="0 0 1024 1024" version="1.1" xmlns="http://www.w3.org/2000/svg" p-id="1953" xmlns:xlink="http://www.w3.org/1999/xlink" width="32" height="32"><defs><style type="text/css"></style></defs><path d="M128 0h768c70.4 0 128 57.6 128 128v768c0 70.4-57.6 128-128 128H128c-70.4 0-128-57.6-128-128V128c0-70.4 57.6-128 128-128zM96 32C60.8 32 32 60.8 32 96v832c0 35.2 28.8 64 64 64h832c35.2 0 64-28.8 64-64V96c0-35.2-28.8-64-64-64H96z" p-id="1954"></path><path d="M624 614.4v-44.8h51.2v44.8h155.2v49.6h-155.2v148.8c0 40-22.4 59.2-64 59.2h-89.6l-11.2-49.6c28.8 1.6 57.6 3.2 83.2 3.2 20.8 0 30.4-8 30.4-25.6v-136H195.2v-49.6H624z m99.2-195.2H318.4v51.2c0 19.2 11.2 28.8 30.4 28.8h376c14.4 0 24-6.4 28.8-14.4 4.8-8 8-25.6 11.2-56l48 16c-3.2 32-8 54.4-14.4 68.8-9.6 20.8-28.8 32-59.2 33.6H331.2c-41.6 0-62.4-19.2-62.4-57.6V252.8h454.4v166.4zM672 372.8v-75.2H320v75.2h352zM475.2 795.2l-38.4 38.4c-28.8-35.2-67.2-73.6-116.8-113.6l35.2-35.2c48 36.8 88 73.6 120 110.4z" p-id="1955"></path></svg>