<?xml version="1.0" standalone="no"?><!DOCTYPE svg PUBLIC "-//W3C//DTD SVG 1.1//EN" "http://www.w3.org/Graphics/SVG/1.1/DTD/svg11.dtd"><svg t="1531730235304" class="icon" style="" viewBox="0 0 1024 1024" version="1.1" xmlns="http://www.w3.org/2000/svg" p-id="5074" xmlns:xlink="http://www.w3.org/1999/xlink" width="32" height="32"><defs><style type="text/css"></style></defs><path d="M511.409041 935.552575c-57.458643 0-113.207341-11.257391-165.69681-33.458019-50.690496-21.441335-96.212272-52.131311-135.300522-91.219561-39.08825-39.08825-69.778226-84.610026-91.219561-135.302569-22.201651-52.488445-33.458019-108.237143-33.458019-165.695786 0-57.458643 11.256368-113.207341 33.458019-165.697833 21.440311-50.690496 52.131311-96.212272 91.219561-135.300522 39.087227-39.087227 84.610026-69.778226 135.300522-91.218538 52.489468-22.201651 108.238167-33.458019 165.69681-33.458019 57.45762 0 113.207341 11.256368 165.69681 33.458019 50.690496 21.440311 96.213295 52.131311 135.302569 91.218538 39.087227 39.08825 69.777203 84.610026 91.219561 135.300522 22.200628 52.489468 33.458019 108.238167 33.458019 165.697833 0 57.458643-11.257391 113.207341-33.458019 165.695786-21.441335 50.692542-52.131311 96.213295-91.219561 135.302569-39.08825 39.087227-84.612073 69.777203-135.302569 91.219561C624.616382 924.295184 568.86666 935.552575 511.409041 935.552575zM511.409041 116.200512c-217.073944 0-393.675104 176.602184-393.675104 393.676128s176.602184 393.677151 393.675104 393.677151c217.074967 0 393.678174-176.603207 393.678174-393.677151S728.484008 116.200512 511.409041 116.200512z" p-id="5075"></path><path d="M234.447125 437.867606l46.156226 0 7.643074 39.98262 18.520819 0 7.644097-39.98262 46.155203 0-7.644097 39.98262 16.169261 0 0 22.048155-43.215244 0 0 30.574343 38.805818 0 0 22.048155-38.805818 0L325.876464 628.957759c0 18.228153-14.992459 33.219589-33.513278 33.219589l-28.516474 0 0-16.168238 1.469468 0c4.704139 0 8.231475-3.52836 8.231475-8.232498l0-85.254709-43.509956 0 0-22.048155 43.509956 0L273.547655 499.898381l-47.625694 0 0-22.048155 16.169261 0L234.447125 437.867606zM232.977657 568.985876l33.80799 0-6.173606 91.429339-33.809013 0L232.977657 568.985876zM228.568231 404.648017l41.157375 0 0-21.75549 55.562457 0 0 21.75549 40.863686 0 0 22.342868L228.568231 426.990884 228.568231 404.648017zM369.974821 660.414191 335.873142 660.414191l-6.173606-91.429339 34.102702 0L369.974821 660.414191zM496.97633 413.173181l-64.970734 0 0 49.977251 72.320119 0 0 22.342868-9.700943 0 0 176.684048-49.095161 0 0-176.684048-13.522991 0 0 176.684048-52.91721 0L379.089409 390.830313l117.887944 0L496.977353 413.173181z" p-id="5076"></path><path d="M527.846408 393.182894 790.37459 393.182894l0 22.341844-94.956675 0 0 59.972906 94.956675 0 0 22.342868-94.956675 0 0 60.267619 103.189174 0 0 22.342868L695.417915 580.450998l0 54.092989c0 15.287171-12.640901 27.928073-27.928073 27.928073l-76.435856 0 0-22.342868 26.164916 0c4.703115 0 8.230452-3.527336 8.230452-8.526187l0-51.152007L519.908622 580.450998l0-22.342868 105.540731 0 0-60.267619-97.602945 0 0-22.342868 97.602945 0 0-59.972906-97.602945 0L527.846408 393.182894z" p-id="5077"></path></svg>