<?xml version="1.0" standalone="no"?><!DOCTYPE svg PUBLIC "-//W3C//DTD SVG 1.1//EN" "http://www.w3.org/Graphics/SVG/1.1/DTD/svg11.dtd"><svg t="1541990610846" class="icon" style="" viewBox="0 0 1024 1024" version="1.1" xmlns="http://www.w3.org/2000/svg" p-id="1868" xmlns:xlink="http://www.w3.org/1999/xlink" width="32" height="32"><defs><style type="text/css"></style></defs><path d="M900.096 443.7248c20.736-13.7728 21.3248-24.32 21.3248-42.6496v-127.9744a64 64 0 0 0-64-63.9744H217.7024a64 64 0 0 0-64 64v127.9488c0 19.0976 1.3312 31.8464 21.3248 42.6496 29.1328 13.568 64 40.96 64 85.2992 0 57.5232-36.1728 76.2368-62.72 85.2224-18.7136 11.6992-22.6048 30.976-22.6048 42.752v127.9488a64 64 0 0 0 64 63.9744h639.744a64 64 0 0 0 64-64v-127.9488c0-23.296-5.3504-30.6688-21.3248-42.6496-46.592-24.0128-64-45.3888-64-85.2992 0-39.936 16.3072-59.776 64-85.2992z m-21.3248 205.4144v114.4832c0 23.552-19.0976 42.6496-42.6496 42.6496H238.976c-23.552 0-42.6496-19.0976-42.6496-42.6496v-114.4832c49.5872-17.6128 85.2992-64.4864 85.2992-120.1152s-35.712-102.5024-85.2992-120.1152V294.4c0-23.552 19.0976-42.6496 42.6496-42.6496h597.1456c23.552 0 42.6496 19.0976 42.6496 42.6496v114.4832c-49.5872 17.6128-85.2992 64.4864-85.2992 120.1152s35.712 102.5024 85.2992 120.1152zM654.848 486.4h-80.512l87.3984-93.9008a11.2896 11.2896 0 0 0 0-14.976l-13.696-14.9504a9.088 9.088 0 0 0-13.6704 0l-96.9216 104.1408-96.9472-104.192a9.0368 9.0368 0 0 0-13.568 0l-13.568 14.848a11.2128 11.2128 0 0 0 0 14.848L500.992 486.4h-80.7424a10.6752 10.6752 0 0 0-10.6496 10.6496v21.3504c0 5.888 4.7616 10.6496 10.6496 10.6496h95.9744v42.6496h-95.9744a10.6496 10.6496 0 0 0-10.6496 10.6752v21.3248c0 5.888 4.7616 10.6496 10.6496 10.6496h95.9744v74.6496c0 5.888 4.7616 10.6752 10.6752 10.6752h21.3248c5.888 0 10.6496-4.7872 10.6496-10.6752v-74.6496h95.9744c5.888 0 10.6496-4.7616 10.6496-10.6496v-21.3248a10.6496 10.6496 0 0 0-10.6496-10.6752H558.848v-42.6496h95.9744c5.888 0 10.6496-4.7616 10.6496-10.6496v-21.3504A10.6752 10.6752 0 0 0 654.848 486.4z" p-id="1869"></path></svg>