<?xml version="1.0" standalone="no"?><!DOCTYPE svg PUBLIC "-//W3C//DTD SVG 1.1//EN" "http://www.w3.org/Graphics/SVG/1.1/DTD/svg11.dtd"><svg t="1529998180880" class="icon" style="" viewBox="0 0 1024 1024" version="1.1" xmlns="http://www.w3.org/2000/svg" p-id="3999" xmlns:xlink="http://www.w3.org/1999/xlink" width="32" height="32"><defs><style type="text/css"></style></defs><path d="M548.39849 583.327512l179.526793 0 0 84.776825-179.526793 0 0-84.776825Z" p-id="4000"></path><path d="M548.39849 453.667453l179.526793 0 0 79.790254-179.526793 0 0-79.790254Z" p-id="4001"></path><path d="M309.030797 583.327512l169.552627 0 0 84.776825-169.552627 0 0-84.776825Z" p-id="4002"></path><path d="M309.030797 453.668477l169.552627 0 0 74.80266-169.552627 0 0-74.80266Z" p-id="4003"></path><path d="M513.490445 4.045129C232.12115 4.045129 4.025175 232.141104 4.025175 513.509377c0 281.370319 228.094952 509.466294 509.464247 509.466294 281.370319 0 509.465271-228.095975 509.465271-509.466294C1022.955716 232.141104 794.860764 4.045129 513.490445 4.045129zM797.742395 752.880139l-69.817112 0L727.925283 717.972095 548.39849 717.972095l0 174.539198-69.816089 0L478.582401 717.972095 309.028751 717.972095l0 49.868781-69.816089 0L239.212662 398.813125l239.368716 0 0-89.763396 79.789231 9.974166-9.973142 24.934902 0 54.855352 249.343905 0L797.741371 752.880139zM862.570889 368.060727l-69.816089 0 0-84.776825L239.213685 283.283902l0 75.634608-74.80266 0L164.411025 224.272903l324.145541 0c-2.7793-9.973142-5.273097-17.997909-7.480368-24.102954-7.207146-18.285458-16.349363-35.453467-27.428699-51.53063l69.816089-14.129812c6.090718 11.091616 10.806113 20.233833 14.129812 27.427676 11.07729 22.725584 19.661805 43.50484 25.765827 62.33572l299.210639 0L862.569866 368.060727z" p-id="4004"></path></svg>